<svg xmlns="http://www.w3.org/2000/svg" viewBox="0 0 32 32" role="img" aria-label="SportHub">
  <rect width="32" height="32" rx="7" fill="#15803d"/>
  <path
    fill="#ecfdf5"
    d="M9.5 10.2c1.8-1.4 4.1-2 6.4-1.6 2 .3 3.6 1.4 4.4 3.1.6 1.2.5 2.6-.3 3.7-.7 1-1.8 1.6-3 1.8l-2.4.4c-.8.1-1.4.4-1.8.9-.3.4-.3 1 .1 1.4.4.5 1.1.8 2 .8 1.2 0 2.3-.4 3.3-1.1l1.4 2.2c-1.3 1-3 1.6-4.8 1.6-2.1 0-3.8-.7-4.8-1.9-.9-1-.9-2.4-.1-3.5.7-1 1.9-1.6 3.2-1.8l2.3-.4c.6-.1 1-.3 1.3-.7.3-.4.3-.9 0-1.3-.4-.6-1.2-1-2.2-1.1-1.5-.2-3 .3-4.1 1.3L9.5 10.2z"
  />
</svg>
